<svg t="1725352230534" class="icon" viewBox="0 0 1251 1024" version="1.1" xmlns="http://www.w3.org/2000/svg" p-id="84662" width="200" height="200"><path d="M969.040219 0.005404C742.083195 0.005404 767.995947 369.781231 767.995947 369.781231l142.221471 56.888588h142.221472l142.221472-56.888588s0.853329-341.331532-170.665766-341.331532a65.677876 65.677876 0 0 0-54.954377-28.444295z" fill="#795548" p-id="84663"></path><path d="M398.220121 341.336936a56.888589 56.888589 0 1 1 56.888588-56.888588 56.888589 56.888589 0 0 1-56.888588 56.888588z m-227.554355 0a56.888589 56.888589 0 1 1 56.888589-56.888588 56.888589 56.888589 0 0 1-56.888589 56.888588z" fill="#FB8C00" p-id="84664"></path><path d="M369.775826 483.558408H199.11006a199.11006 199.11006 0 0 0-199.11006 199.11006v56.888589h568.885886v-56.888589a199.11006 199.11006 0 0 0-199.11006-199.11006z" fill="#00BCD4" p-id="84665"></path><path d="M199.11006 334.225863v163.554692c0 23.551876 38.200687 42.666441 85.332883 42.666442s85.332883-19.114566 85.332883-42.666442v-163.554692z" fill="#FB8C00" p-id="84666"></path><path d="M284.442943 455.114114a142.221472 142.221472 0 0 1-142.221471-142.221472V85.338287h284.442943v227.554355a142.221472 142.221472 0 0 1-142.221472 142.221472z" fill="#FFB74D" p-id="84667"></path><path d="M284.442943 0.005404a170.665766 170.665766 0 0 0-170.665766 170.665766v113.777178l28.444295-28.444295V199.115465l198.142954-87.29554L426.664415 199.115465v56.888588l28.444294 28.444295V170.67117a170.665766 170.665766 0 0 0-170.665766-170.665766z" fill="#795548" p-id="84668"></path><path d="M355.553679 270.2262m-28.444294 0a28.444294 28.444294 0 1 0 56.888588 0 28.444294 28.444294 0 1 0-56.888588 0Z" fill="#FFFFFF" p-id="84669"></path><path d="M355.553679 270.2262m-14.222147 0a14.222147 14.222147 0 1 0 28.444294 0 14.222147 14.222147 0 1 0-28.444294 0Z" fill="#2196F3" p-id="84670"></path><path d="M213.332207 270.2262m-28.444294 0a28.444294 28.444294 0 1 0 56.888589 0 28.444294 28.444294 0 1 0-56.888589 0Z" fill="#FFFFFF" p-id="84671"></path><path d="M213.332207 270.2262m-14.222147 0a14.222147 14.222147 0 1 0 28.444295 0 14.222147 14.222147 0 1 0-28.444295 0Z" fill="#2196F3" p-id="84672"></path><path d="M1052.43889 483.558408h-142.221472a199.11006 199.11006 0 0 0-199.11006 199.11006v56.888589h540.441592v-56.888589a199.11006 199.11006 0 0 0-199.11006-199.11006z" fill="#FF5722" p-id="84673"></path><path d="M910.217418 334.225863v163.554692c0 23.551876 31.829165 42.666441 71.110736 42.666442s71.110736-19.114566 71.110736-42.666442v-163.554692z" fill="#FB8C00" p-id="84674"></path><path d="M981.328154 455.114114a127.999324 127.999324 0 0 1-127.999324-127.999325v-113.777177A127.999324 127.999324 0 0 1 981.328154 85.338287 127.999324 127.999324 0 0 1 1109.327479 213.337612v113.777177a127.999324 127.999324 0 0 1-127.999325 127.999325z" fill="#FFB74D" p-id="84675"></path><path d="M824.884535 142.226876v142.221472l28.444295 28.444294V256.004053l169.69866-115.739833L1109.327479 256.004053v56.888589l28.444294-28.444294V142.226876l-170.665766-85.332883z" fill="#795548" p-id="84676"></path><path d="M1038.216743 270.2262m-28.444295 0a28.444294 28.444294 0 1 0 56.888589 0 28.444294 28.444294 0 1 0-56.888589 0Z" fill="#FFFFFF" p-id="84677"></path><path d="M1038.216743 270.2262m-14.222147 0a14.222147 14.222147 0 1 0 28.444294 0 14.222147 14.222147 0 1 0-28.444294 0Z" fill="#2196F3" p-id="84678"></path><path d="M924.439565 270.2262m-28.444294 0a28.444294 28.444294 0 1 0 56.888589 0 28.444294 28.444294 0 1 0-56.888589 0Z" fill="#FFFFFF" p-id="84679"></path><path d="M924.439565 270.2262m-14.222147 0a14.222147 14.222147 0 1 0 28.444295 0 14.222147 14.222147 0 1 0-28.444295 0Z" fill="#2196F3" p-id="84680"></path><path d="M725.329505 711.112762a42.666441 42.666441 0 1 1 42.666442-42.666441 42.666441 42.666441 0 0 1-42.666442 42.666441z m-199.11006 0a42.666441 42.666441 0 1 1 42.666441-42.666441 42.666441 42.666441 0 0 1-42.666441 42.666441z" fill="#FB8C00" p-id="84681"></path><path d="M682.663064 824.88994h-113.777178a170.665766 170.665766 0 0 0-170.665765 170.665766v28.444294h455.108709v-28.444294a170.665766 170.665766 0 0 0-170.665766-170.665766z" fill="#2196F3" p-id="84682"></path><path d="M568.885886 715.86296V824.88994c0 15.70125 25.457643 28.444294 56.888589 28.444294s56.888589-12.743044 56.888589-28.444294v-109.02698z" fill="#FB8C00" p-id="84683"></path><path d="M625.774475 796.445645a113.777177 113.777177 0 0 1-113.777177-113.777177v-142.221471h227.554354v142.221471a113.777177 113.777177 0 0 1-113.777177 113.777177z" fill="#FFB74D" p-id="84684"></path><path d="M625.774475 455.114114a142.221472 142.221472 0 0 0-142.221472 142.221471v71.110736l28.444295-14.222147v-28.444295l142.221471-85.332882 85.332883 85.332882v28.444295l28.444295 14.222147V597.335585a142.221472 142.221472 0 0 0-142.221472-142.221471z" fill="#795548" p-id="84685"></path><path d="M668.440917 668.446321m-14.222148 0a14.222147 14.222147 0 1 0 28.444295 0 14.222147 14.222147 0 1 0-28.444295 0Z" fill="#795548" p-id="84686"></path><path d="M583.108034 668.446321m-14.222148 0a14.222147 14.222147 0 1 0 28.444295 0 14.222147 14.222147 0 1 0-28.444295 0Z" fill="#795548" p-id="84687"></path></svg>