<svg t="1727086181446" class="icon" viewBox="0 0 1024 1024" version="1.1" xmlns="http://www.w3.org/2000/svg" p-id="3207" width="200" height="200"><path d="M512 68.5C267.062 68.5 68.5 267.062 68.5 512S267.062 955.5 512 955.5 955.5 756.938 955.5 512 756.938 68.5 512 68.5z m-79.572 188.778h252.391c21.081 0 38.168 18.477 38.168 41.319 0 22.81-17.087 41.287-38.168 41.287H432.428c-21.084 0-38.168-18.477-38.168-41.287 0.001-22.842 17.084-41.319 38.168-41.319z m0 128.797h252.391c21.081 0 38.168 18.477 38.168 41.287 0 22.842-17.087 41.319-38.168 41.319H432.428c-21.084 0-38.168-18.477-38.168-41.319 0.001-22.81 17.084-41.287 38.168-41.287z m382.364 254.722s-99.964 70.276-131.132 88.271c-31.141 18.023-79.005 65.762-121.443 62.309-42.407-3.453-194.776-46.255-228.246-41.53-14.876 2.091-38.078 8.605-59.949 14.237l-1.82 0.454a16.939 16.939 0 0 1-5.571 1.213 18.088 18.088 0 0 1-15.33-9.333c-0.755-1.542-1.515-3.3-2.239-4.995-15.815-35.96-31.838-107.476-39.443-144.101-2.545-12.238 4.274-24.537 15.451-27.626 68.854-19.143 126.559-56.253 152.612-68.734 33.713-16.113 53.102-3.088 131.131 15.572 78.031 18.72 111.716 20.779 111.716 20.779 11.208 20.415-3.3 53.615-29.172 62.34-25.837 8.694-120.954-1.03-145.703-5.21-11.904-2.028-13.478 13.51 0.666 28.871 15.146 16.446 53.678 30.291 82.638 39.561 41.894 13.419 101.263-6.123 101.263-6.123s82.485-49.191 136.013-62.309c53.525-13.142 48.558 36.354 48.558 36.354z" fill="#3ED76A" p-id="3208"></path></svg>