<svg t="1726990594606" class="icon" viewBox="0 0 1024 1024" version="1.1" xmlns="http://www.w3.org/2000/svg" p-id="4853" width="200" height="200"><path d="M807.822222 492.088889L514.844444 785.066667 221.866667 492.088889c-5.688889-5.688889-11.377778-8.533333-19.911111-8.533333-8.533333 0-14.222222 2.844444-19.911112 8.533333-11.377778 11.377778-11.377778 28.444444 0 39.822222l332.8 332.8 332.8-332.8c8.533333-11.377778 8.533333-25.6 0-36.977778-11.377778-11.377778-28.444444-14.222222-39.822222-2.844444z" fill="#ffffff" p-id="4854"></path><path d="M514.844444 551.822222L847.644444 219.022222c8.533333-11.377778 8.533333-25.6 0-36.977778-11.377778-11.377778-28.444444-14.222222-39.822222-2.844444L514.844444 472.177778 221.866667 179.2c-5.688889-5.688889-11.377778-8.533333-19.911111-8.533333-8.533333 0-14.222222 2.844444-19.911112 8.533333-11.377778 11.377778-11.377778 28.444444 0 39.822222l332.8 332.8z" fill="#ffffff" p-id="4855"></path></svg>