<svg t="1682677187728" class="icon" viewBox="0 0 1024 1024" version="1.1" xmlns="http://www.w3.org/2000/svg" p-id="25790" width="200" height="200"><path d="M878.354364 367.81718c-8.828063 0-15.945157 7.153934-15.945157 15.96153l0 384.65159c0 51.80897-42.154076 93.957929-93.957929 93.957929L255.547699 862.388229c-51.80283 0-93.956905-42.148959-93.956905-93.957929l0-512.901533c0-51.807946 42.154076-93.959975 93.956905-93.959975l384.699686 0c8.820899 0 15.940041-7.133468 15.940041-15.947204 0-8.806573-7.119141-15.94618-15.940041-15.94618L255.547699 129.675408c-69.410859 0-125.862569 56.45785-125.862569 125.868709l0 512.934279c0 69.375044 56.45171 125.84722 125.862569 125.84722L768.48607 894.325615c69.376067 0 125.845173-56.473199 125.827777-125.84722L894.313847 383.777687C894.313847 374.971114 887.178333 367.81718 878.354364 367.81718zM334.363765 576.214511c-0.474814 0.687662-1.125637 1.180895-1.528819 1.963725l-91.596138 183.163623c-3.059686 6.132674-1.842974 13.539364 3.009544 18.415418 3.048429 3.027963 7.142677 4.668323 11.298324 4.668323 2.420119 0 4.877077-0.560772 7.136537-1.686409l183.16874-91.555206c0.909719-0.443092 1.52268-1.208525 2.306532-1.801019 0.589424-0.427742 1.288343-0.665149 1.830695-1.211595l347.956853-347.989599c0.037862-0.033769 0.084934-0.033769 0.122797-0.069585 0.028653-0.026606 0.046049-0.074701 0.070608-0.107447l52.634778-52.633754c13.414521-13.396101 20.823258-31.206746 20.823258-50.146097 0-18.940374-7.407714-36.734646-20.823258-50.15019l-13.876032-13.856589c-13.381775-13.416568-31.178093-20.777209-50.111305-20.777209-18.938328 0-36.722366 7.361665-50.116421 20.777209L335.870072 574.017472C335.195713 574.656015 334.881558 575.502289 334.363765 576.214511zM759.213893 195.788152c14.754029-14.735609 40.377616-14.766308 55.131645 0l13.875009 13.842263c7.379061 7.360641 11.45489 17.170055 11.45489 27.574009 0 10.422374-4.075829 20.217461-11.45489 27.591405l-41.450041 41.452087-69.012793-69.02405L759.213893 195.788152zM695.204044 259.794931l69.007677 69.028143L438.726671 654.321426l-69.02405-69.043493L695.204044 259.794931zM411.803485 672.514787l-120.605845 60.295248 60.294225-120.591519L411.803485 672.514787z" fill="#070102" p-id="25791"></path></svg>