<svg t="1684404845653" class="icon" viewBox="0 0 1024 1024" version="1.1" xmlns="http://www.w3.org/2000/svg" p-id="1454" width="48" height="48"><path d="M512 0c-282.784 0-512 71.648-512 160l0 96 384 384 0 320c0 35.36 57.312 64 128 64s128-28.64 128-64l0-320 384-384 0-96c0-88.352-229.216-160-512-160zM94.4 138.816c23.936-13.664 57.568-26.624 97.28-37.472 87.936-24.064 201.696-37.344 320.352-37.344s232.384 13.248 320.352 37.344c39.712 10.88 73.344 23.84 97.28 37.472 15.808 8.992 24.32 16.608 28.288 21.184-3.968 4.544-12.512 12.16-28.288 21.184-23.936 13.664-57.6 26.624-97.28 37.472-87.936 24.064-201.696 37.344-320.352 37.344s-232.384-13.248-320.352-37.344c-39.68-10.88-73.344-23.84-97.28-37.472-15.808-9.024-24.32-16.608-28.288-21.184 3.968-4.544 12.512-12.16 28.288-21.184z" fill="red" p-id="1455"></path></svg>