<svg t="1727276454268" class="icon" viewBox="0 0 1024 1024" version="1.1" xmlns="http://www.w3.org/2000/svg" p-id="7971" width="200" height="200"><path d="M974.727529 484.171294c-37.767529-79.691294-82.823529-144.685176-134.927058-194.921412l-54.814118 54.693647c44.694588 42.646588 83.546353 98.484706 117.157647 167.936-89.509647 185.223529-216.545882 273.227294-390.144 273.227295a416.346353 416.346353 0 0 1-143.962353-24.094118l-59.331765 59.331765c60.958118 28.129882 128.722824 42.164706 203.294118 42.164705 206.727529 0 360.990118-107.640471 462.727529-322.981647a64.752941 64.752941 0 0 0 0-55.41647z m-68.367058-344.907294l-45.839059-45.899294a8.553412 8.553412 0 0 0-12.16753 0L730.654118 210.944c-64.873412-33.129412-137.758118-49.694118-218.654118-49.694118-206.787765 0-361.050353 107.640471-462.787765 322.981647a64.873412 64.873412 0 0 0 0 55.416471c40.658824 85.594353 89.569882 154.202353 146.793412 205.884235l-113.844706 113.844706a8.613647 8.613647 0 0 0 0 12.107294l45.95953 45.899294a8.613647 8.613647 0 0 0 12.167529 0L906.360471 151.431529a8.613647 8.613647 0 0 0 0-12.167529zM121.856 511.879529C211.486118 326.656 338.522353 238.712471 512 238.712471c58.669176 0 112.037647 10.059294 160.406588 30.539294L596.811294 344.847059a189.319529 189.319529 0 0 0-256.180706 256.12047l-89.750588 89.750589c-49.633882-43.851294-92.461176-103.243294-129.024-178.838589z m265.396706 0a120.591059 120.591059 0 0 1 157.214118-114.748235L392.975059 548.743529a120.470588 120.470588 0 0 1-5.722353-36.743529z" fill="#8C8C8C" p-id="7972"></path><path d="M507.723294 632.530824c-3.734588 0-7.408941-0.180706-11.023059-0.481883l-56.801882 56.801883a189.44 189.44 0 0 0 244.555294-244.61553l-56.741647 56.801882a120.651294 120.651294 0 0 1-73.848471 122.337883c-14.637176 6.023529-30.298353 9.155765-46.140235 9.155765z" fill="#8C8C8C" p-id="7973"></path></svg>