<svg t="1726462960087" class="icon" viewBox="0 0 1024 1024" version="1.1" xmlns="http://www.w3.org/2000/svg" p-id="4188" width="200" height="200"><path d="M227.555556 927.326815a284.444444 94.814815 0 1 0 568.888888 0 284.444444 94.814815 0 1 0-568.888888 0Z" fill="#D1D1D1" p-id="4189"></path><path d="M379.259259 927.326815a132.740741 37.925926 0 1 0 265.481482 0 132.740741 37.925926 0 1 0-265.481482 0Z" fill="#999999" p-id="4190"></path><path d="M512 900.778667l-204.8-204.8c-94.814815-64.474074-155.496296-170.666667-155.496296-288.237037v-26.548149c0-189.62963 155.496296-345.125926 345.125926-345.125925h30.34074c189.62963 0 345.125926 155.496296 345.125926 345.125925v22.755556c0 113.777778-56.888889 219.97037-151.703703 284.444444l-208.592593 212.385186z" fill="#FFFFFF" p-id="4191"></path><path d="M512 874.230519l193.422222-193.422223 3.792593-3.792592 3.792592-3.792593c91.022222-60.681481 144.118519-163.081481 144.118519-269.274074v-22.755556c-3.792593-178.251852-151.703704-326.162963-329.955556-326.162962h-30.34074c-178.251852 0-326.162963 147.911111-326.162963 326.162962v22.755556c0 109.985185 53.096296 212.385185 144.118518 273.066667l3.792593 3.792592H322.37037l189.62963 193.422223m0 53.096296l-216.177778-219.970371c-98.607407-64.474074-163.081481-178.251852-163.081481-303.407407v-22.755556c0-201.007407 163.081481-364.088889 364.088889-364.088888h30.34074c201.007407 0 364.088889 163.081481 364.088889 364.088888v22.755556c0 125.155556-64.474074 235.140741-159.288889 299.614815l-219.97037 223.762963z" fill="#E53942" p-id="4192"></path><path d="M284.444444 149.845333h174.45926v41.718519c-15.17037 41.718519-34.133333 91.022222-56.888889 144.118518 34.133333 49.303704 53.096296 91.022222 53.096296 128.948149 0 26.548148-3.792593 41.718519-15.17037 53.096296-15.17037 15.17037-41.718519 18.962963-83.437037 18.962963l-15.170371-49.303704c11.377778 0 18.962963 3.792593 26.548148 3.792593 15.17037 0 22.755556-3.792593 30.340741-7.585186 3.792593-3.792593 7.585185-11.377778 7.585185-18.962962 0-34.133333-18.962963-75.851852-53.096296-121.362963 22.755556-49.303704 41.718519-98.607407 56.888889-144.118519h-75.851852v424.77037H284.444444v-474.074074z m242.725926 238.933334v166.874074c30.340741-7.585185 56.888889-18.962963 83.437037-30.340741l11.377778 45.511111c-41.718519 15.17037-91.022222 30.340741-147.911111 49.303704l-11.377778-45.511111c7.585185-3.792593 15.17037-7.585185 15.170371-15.170371v-409.6h238.933333v238.933334h-94.814815c3.792593 26.548148 15.17037 49.303704 26.548148 75.851852 22.755556-15.17037 45.511111-34.133333 68.266667-60.681482l34.133333 34.133333c-22.755556 26.548148-49.303704 49.303704-75.851852 60.681482 22.755556 30.340741 53.096296 53.096296 87.22963 75.851852l-26.548148 45.511111c-87.22963-56.888889-140.325926-136.533333-155.496296-231.348148h-53.096297z m140.325926-140.325926v-53.096297h-140.325926v49.303704h140.325926z m-140.325926 45.511111v49.303704h140.325926v-49.303704h-140.325926z" fill="#E53942" p-id="4193"></path></svg>