<svg t="1691204859538" class="icon" viewBox="0 0 1024 1024" version="1.1" xmlns="http://www.w3.org/2000/svg" p-id="1459" width="200" height="200"><path d="M109.714286 502.857143C109.714286 305.371429 290.304 146.285714 512 146.285714s402.285714 159.085714 402.285714 356.571429-180.589714 356.571429-402.285714 356.571428c-44.141714 0-87.332571-6.290286-128.365714-18.541714a18.285714 18.285714 0 0 1 10.459428-35.035428c37.632 11.227429 77.312 17.005714 117.906286 17.005714 202.459429 0 365.714286-143.835429 365.714286-320S714.459429 182.857143 512 182.857143 146.285714 326.692571 146.285714 502.857143c0 74.057143 28.854857 144.274286 81.042286 200.850286a18.285714 18.285714 0 0 1 3.291429 19.748571c-14.994286 33.938286-34.084571 62.537143-57.197715 85.686857 48.64 1.462857 88.429714-10.569143 120.064-35.693714a18.285714 18.285714 0 1 1 22.747429 28.635428C267.081143 841.142857 202.971429 853.869714 124.964571 840.886857a18.285714 18.285714 0 0 1-7.094857-33.243428c30.793143-20.516571 55.552-49.883429 74.349715-88.356572C139.117714 657.737143 109.714286 582.326857 109.714286 502.857143z m278.308571 93.732571a18.285714 18.285714 0 1 1 28.525714-22.893714C442.514286 605.988571 473.965714 621.714286 512 621.714286c38.034286 0 69.449143-15.725714 95.451429-48.018286a18.285714 18.285714 0 1 1 28.525714 22.893714C603.136 637.44 561.371429 658.285714 512 658.285714s-91.136-20.845714-123.977143-61.696zM621.714286 475.428571a18.285714 18.285714 0 1 1-36.571429 0v-54.857142a18.285714 18.285714 0 1 1 36.571429 0V475.428571z m-182.857143 0a18.285714 18.285714 0 1 1-36.571429 0v-54.857142a18.285714 18.285714 0 1 1 36.571429 0V475.428571z" fill="#358EFF" p-id="1460"></path></svg>