<svg t="1686294297614" class="icon" viewBox="0 0 1024 1024" version="1.1" xmlns="http://www.w3.org/2000/svg" p-id="3272" width="200" height="200"><path d="M497.3568 558.592c3.9936 3.9936 9.3184 6.0416 14.6432 5.9392 5.3248 0 10.6496-1.9456 14.6432-5.9392l302.1824-302.1824c7.9872-7.9872 7.9872-20.992 0-28.9792-7.9872-7.9872-20.992-7.9872-28.9792 0L512 515.2768 224.0512 227.328c-7.9872-7.9872-20.992-7.9872-28.9792 0-7.9872 7.9872-7.9872 20.992 0 28.9792l302.2848 302.2848z" p-id="3273"></path><path d="M828.928 465.408c-7.9872-7.9872-20.992-7.9872-28.9792 0L512 753.3568 224.0512 465.408c-7.9872-7.9872-20.992-7.9872-28.9792 0-7.9872 7.9872-7.9872 20.992 0 28.9792L497.3568 796.672c3.9936 3.9936 9.3184 6.0416 14.6432 5.9392 5.3248 0 10.6496-1.9456 14.6432-5.9392l302.1824-302.1824c7.9872-7.9872 7.9872-21.0944 0.1024-29.0816z" p-id="3274"></path></svg>