<svg t="1726198391185" class="icon" viewBox="0 0 1024 1024" version="1.1" xmlns="http://www.w3.org/2000/svg" p-id="25718" width="200" height="200"><path d="M587.872 176h-256a32 32 0 0 0-32 32v256a32 32 0 0 0 32 32h256a32 32 0 0 0 32-32v-256c0-17.664-14.368-32-32-32z m-0.064 272a16 16 0 0 1-16 16H347.84a16 16 0 0 1-16-16V224a16 16 0 0 1 16-16h223.968a16 16 0 0 1 16 16v224z" fill="#0C5894" p-id="25719"></path><path d="M571.808 208H347.84a16 16 0 0 0-16 16v224a16 16 0 0 0 16 16h223.968a16 16 0 0 0 16-16V224a16 16 0 0 0-16-16z" fill="#63BFFB" p-id="25720"></path><path d="M683.872 48V25.6a9.6 9.6 0 0 0-9.568-9.6h-44.8a9.6 9.6 0 0 0-9.632 9.6v22.4h-384a64 64 0 0 0-64 64v832a64 64 0 0 0 64 64h448a64 64 0 0 0 64-64v-832a64 64 0 0 0-64-64z m0 864.064a32 32 0 0 1-32 32h-384a32 32 0 0 1-32-32V144a32 32 0 0 1 32-32h384a32 32 0 0 1 32 32v768.064z m-320-288.064h-64v-64h64v64z m128 0h-64v-64h64v64z m128 0h-64v-64h64v64z m-256 128h-64v-64h64v64z m128 0h-64v-64h64v64z m128 0h-64v-64h64v64z m-256 128h-64v-64h64v64z m128 0h-64v-64h64v64z m128 0h-64v-64h64v64z" fill="#ABABAB" p-id="25721"></path><path d="M663.936 671.552l104.384 104.192c-1.184 0.672-2.944 1.344-4.128 2.528-51.808 51.264-103.616 102.4-155.136 153.92-6.752 6.72-13.952 11.008-23.072 13.6-35.328 10.016-70.528 20.576-105.728 30.88-7.84 2.304-14.016 0.224-18.016-5.888a14.976 14.976 0 0 1-1.312-12.768c11.264-38.56 22.496-77.12 33.984-115.552a18.016 18.016 0 0 1 4.672-7.648c53.728-53.28 107.488-106.432 161.248-159.584 1.184-1.216 2.176-2.56 3.104-3.68z m-143.648 187.488c-0.576 1.632-0.96 2.784-1.312 3.968-4.736 16.16-8.928 32.48-14.464 48.352-2.88 8.288-2.08 14.08 5.12 19.008a14.304 14.304 0 0 1 3.456 3.488c1.6 2.016 3.328 2.08 5.696 1.408 13.184-4 26.464-7.872 39.648-11.744 6.624-1.984 13.248-3.872 20.384-5.984-1.12-1.248-1.76-2.24-2.624-2.88a16.864 16.864 0 0 1-7.36-15.872c0.192-2.528-0.128-5.088-0.32-7.616-0.384-7.04-0.8-14.048-1.312-21.248-9.696-0.768-18.88-1.76-28.032-2.208-6.72-0.384-13.088-1.024-17.216-7.328-0.288-0.416-0.736-0.64-1.664-1.344z m298.912-141.856l-98.816-98.688c7.936-7.264 14.368-16.736 24.864-21.792 12.64-6.08 28.32-3.232 39.488 7.808 16.256 16 32.448 32.064 48.384 48.416 14.752 15.104 14.496 35.488-0.192 50.592-4.544 4.736-9.312 9.248-13.728 13.664z m-13.44 19.456l-22.56 21.088-103.136-103.2 22.496-21.12 103.2 103.232z m0 0" fill="#EE4646" p-id="25722"></path></svg>