<svg t="1725351853131" class="icon" viewBox="0 0 1024 1024" version="1.1" xmlns="http://www.w3.org/2000/svg" p-id="74068" width="200" height="200"><path d="M512 512m-475.428571 0a475.428571 475.428571 0 1 0 950.857142 0 475.428571 475.428571 0 1 0-950.857142 0Z" fill="#F56C6C" p-id="74069"></path><path d="M512 841.142857A329.142857 329.142857 0 0 1 182.857143 512a351.085714 351.085714 0 0 1 95.085714-234.057143h43.885714a36.571429 36.571429 0 0 1 0 51.2 270.628571 270.628571 0 0 0-73.142857 182.857143 263.314286 263.314286 0 0 0 526.628572 0 248.685714 248.685714 0 0 0-80.457143-182.857143 65.828571 65.828571 0 0 1 0-51.2h51.2A351.085714 351.085714 0 0 1 841.142857 512 329.142857 329.142857 0 0 1 512 841.142857z" fill="#FFFFFF" p-id="74070"></path><path d="M512 460.8a36.571429 36.571429 0 0 1-36.571429-36.571429V219.428571a36.571429 36.571429 0 0 1 73.142858 0v204.8a36.571429 36.571429 0 0 1-36.571429 36.571429z" fill="#FFFFFF" p-id="74071"></path></svg>