<svg t="1732872095113" class="icon" viewBox="0 0 1024 1024" version="1.1" xmlns="http://www.w3.org/2000/svg" p-id="7014" width="200" height="200"><path d="M512 512m-512 0a512 512 0 1 0 1024 0 512 512 0 1 0-1024 0Z" fill="#E5FCF2" p-id="7015"></path><path d="M283.761778 753.379556a345.144889 345.144889 0 0 1-68.750222-110.933334l-13.226667 49.294222a26.538667 26.538667 0 0 1-32.455111 18.744889 26.510222 26.510222 0 0 1-18.716445-32.455111l30.236445-112.839111a26.197333 26.197333 0 0 1 10.097778-14.620444 24.718222 24.718222 0 0 1 22.499555-4.608l101.888 29.411555a28.785778 28.785778 0 0 1 18.602667 34.844445 26.225778 26.225778 0 0 1-32.256 20.138666l-38.343111-11.093333a263.281778 263.281778 0 0 0 244.053333 177.180444 265.614222 265.614222 0 0 0 251.448889-199.111111l3.754667-15.189333a26.225778 26.225778 0 0 1 32.284444-20.110222 28.757333 28.757333 0 0 1 18.631111 34.844444v0.455111h0.227556q-1.962667 8.220444-4.266667 16.270223l-2.673778 10.723555a29.155556 29.155556 0 0 1-3.356444 8.135111 345.486222 345.486222 0 0 1-72.448 120.888889 300.145778 300.145778 0 0 1-447.288889 0z m494.933333-264.049778l-92.16-55.125334a29.667556 29.667556 0 0 1-10.24-38.826666 25.372444 25.372444 0 0 1 35.811556-11.093334l40.988444 24.519112a263.736889 263.736889 0 0 0-245.703111-181.248 265.102222 265.102222 0 0 0-249.856 193.934222l-10.467556 42.154666a26.766222 26.766222 0 0 1-25.429333 21.077334 24.405333 24.405333 0 0 1-6.826667-1.166222 28.728889 28.728889 0 0 1-18.631111-34.730667l5.376-22.158222h-0.512q2.844444-12.145778 6.570667-23.950223l2.190222-8.846222a29.525333 29.525333 0 0 1 3.953778-9.073778 346.140444 346.140444 0 0 1 70.001778-114.147555 300.145778 300.145778 0 0 1 447.288889 0 345.685333 345.685333 0 0 1 71.964444 119.466667l20.963556-37.802667a26.851556 26.851556 0 1 1 46.990222 26.026667l-55.267556 99.555555a26.88 26.88 0 0 1-8.533333 9.301333 25.144889 25.144889 0 0 1-15.616 5.518223 24.775111 24.775111 0 0 1-12.8-3.470223z m4.096-62.663111z" fill="#2AC119" p-id="7016"></path><path d="M554.951111 349.752889l-145.379555 163.128889 89.656888 38.712889s-39.623111 122.709333-36.778666 122.709333 152.007111-161.422222 152.007111-161.422222l-89.713778-41.528889z" fill="#2AC119" p-id="7017"></path><path d="M554.951111 335.530667a14.222222 14.222222 0 0 1 6.656 1.649777 14.222222 14.222222 0 0 1 7.111111 16.014223l-27.392 110.165333 79.104 36.608a14.222222 14.222222 0 0 1 7.936 10.126222 14.222222 14.222222 0 0 1-3.498666 12.430222c-0.398222 0.398222-37.717333 40.846222-75.008 80.753778-21.902222 23.466667-39.452444 42.154667-52.167112 55.580445-7.623111 7.992889-13.624889 14.222222-17.777777 18.460444-8.049778 8.135111-11.064889 11.178667-17.493334 11.178667a14.222222 14.222222 0 0 1-11.548444-5.888c-4.778667-6.513778-3.157333-12.060444 2.844444-32.597334 2.986667-10.382222 7.338667-24.604444 12.828445-42.325333 5.688889-18.289778 11.377778-36.579556 15.217778-48.184889l-77.767112-33.592889a14.222222 14.222222 0 0 1-8.277333-9.984 14.222222 14.222222 0 0 1 3.271111-12.544l145.379556-163.128889a14.222222 14.222222 0 0 1 10.581333-4.721777z m35.783111 182.044444l-71.992889-33.336889a14.222222 14.222222 0 0 1-7.765333-16.327111l16.327111-65.706667-93.866667 105.415112 71.566223 30.890666a14.222222 14.222222 0 0 1 7.936 17.436445c-7.566222 23.267556-15.274667 47.758222-21.674667 68.522666 28.245333-30.179556 67.640889-72.533333 99.470222-106.922666z" fill="#2AC119" p-id="7018"></path></svg>