<svg t="1727278435703" class="icon" viewBox="0 0 1024 1024" version="1.1" xmlns="http://www.w3.org/2000/svg" p-id="14241" width="200" height="200"><path d="M864.9216 727.7568h-563.2a128.3584 128.3584 0 0 1-128-128V238.1824a128.3584 128.3584 0 0 1 128-128h563.2a128.3584 128.3584 0 0 1 128 128v361.5744a128.3584 128.3584 0 0 1-128 128z" fill="#E1E1DF" p-id="14242"></path><path d="M920.9344 746.9568h-819.2V307.2a128.3584 128.3584 0 0 1 128-128h563.2a128.3584 128.3584 0 0 1 128 128z" fill="#4E8DF6" p-id="14243"></path><path d="M940.1344 910.1824H80.9472a47.2064 47.2064 0 0 1-48.0256-48.0256v-89.6H988.16v89.6a47.2064 47.2064 0 0 1-48.0256 48.0256z" fill="#2166CC" p-id="14244"></path><path d="M197.7344 857.344H109.7216a16.0256 16.0256 0 0 1-15.9744-15.9744V839.68a16.0256 16.0256 0 0 1 15.9744-16.0256h88.0128a16.0768 16.0768 0 0 1 16.0256 16.0256v1.5872a15.36 15.36 0 0 1-16.0256 16.0768z m153.6 0H263.3216a16.0256 16.0256 0 0 1-15.9744-15.9744V839.68a16.0256 16.0256 0 0 1 15.9744-16.0256h88.0128a16.0768 16.0768 0 0 1 16.0256 16.0256v1.5872a15.36 15.36 0 0 1-16.0256 16.0768z m550.4 0h-88.0128a16.0256 16.0256 0 0 1-15.9744-15.9744V839.68a16.0256 16.0256 0 0 1 15.9744-16.0256h88.0128a16.0768 16.0768 0 0 1 16.0256 16.0256v1.5872a16.0768 16.0768 0 0 1-16.0256 16.0768zM433.3056 478.5152A193.536 193.536 0 0 0 444.16 409.6v-10.24c0.4096-5.12 3.6352-7.8848 9.6256-8.3456 5.9392 0.4608 9.1648 3.2256 9.5744 8.3456 0 3.4304 0 11.52-0.6144 24.32v10.8544a185.6512 185.6512 0 0 0 8.96 39.68 174.8992 174.8992 0 0 0 28.16 48.64 9.1648 9.1648 0 0 1-1.9456 14.08 10.24 10.24 0 0 1-12.8-1.8944q-19.8144-21.0944-30.72-59.5456-12.1344 39.7312-51.8144 64.6656a10.24 10.24 0 0 1-13.4656-3.2256 7.168 7.168 0 0 1 1.28-11.52A97.6384 97.6384 0 0 0 432.0256 481.28c-5.12 4.7104-10.24 4.2496-15.36-1.28a42.1888 42.1888 0 0 1-3.2256-3.84c-6.8096-7.2704-11.7248-12.3904-14.6944-15.36q-10.24 44.8-32.6656 68.4544a9.216 9.216 0 0 1-12.8 0 8.1408 8.1408 0 0 1 0.6656-11.52 140.3392 140.3392 0 0 0 29.44-86.3744v-31.5904c0.4096-4.6592 3.584-7.2192 9.5744-7.68 5.5296 0.4608 8.5504 3.0208 8.96 7.68q0 26.88-0.6144 37.12c9.7792 9.4208 19.2 18.9952 28.16 28.8256a11.4688 11.4688 0 0 1 3.84 12.8zM564.48 478.5152c-2.56-2.9696-5.12-6.1952-7.68-9.6256v64a8.96 8.96 0 0 1-17.92 0v-53.76a108.8512 108.8512 0 0 1-7.0144 12.8 15.0016 15.0016 0 0 1-1.9456 3.84 8.8576 8.8576 0 0 1-12.8 3.84 8.3456 8.3456 0 0 1-3.1744-12.1344A198.6048 198.6048 0 0 0 537.6 431.7696h-13.4144a8.96 8.96 0 0 1 0-17.92h14.6944v-16.64a8.96 8.96 0 1 1 17.92 0v16.64h14.08c4.2496 0.4608 6.6048 3.4304 7.0656 8.96-0.4608 5.5808-2.816 8.5504-7.0656 8.96h-14.08v7.68c4.7104 5.9904 10.6496 13.4656 17.92 22.4256-0.8704-0.8704 0 0 1.9456 2.56 3.84 5.5296 4.2496 10.24 1.28 14.08a8.704 8.704 0 0 1-13.4656 0zM581.12 450.56v-42.4448c-0.8704-9.3696 2.9696-13.6704 11.52-12.8h39.68c7.68-0.8704 11.3152 3.4304 10.9056 12.8v108.1344a2.816 2.816 0 0 0 3.1744 3.2256q3.84 4.4544 3.2256-31.3856a8.3456 8.3456 0 0 1 16.64 0c0.8192 23.04 0 36.5056-1.9456 40.3456-1.6896 5.5296-7.4752 8.0896-17.2544 7.68h-6.4c-10.24 0-15.36-5.5808-15.36-16.64v-102.4a3.9936 3.9936 0 0 0-4.5056-4.5056H604.16c-3.4304-0.4096-5.12 1.28-5.12 5.12v26.2656a271.36 271.36 0 0 1-3.84 53.76 108.4928 108.4928 0 0 1-16.64 37.12 10.24 10.24 0 0 1-14.08 3.84 8.1408 8.1408 0 0 1-2.56-12.8 92.672 92.672 0 0 0 15.36-31.3856 187.904 187.904 0 0 0 3.84-43.9296z" fill="#FFFFFF" p-id="14245"></path></svg>