<svg t="1727276273544" class="icon" viewBox="0 0 1024 1024" version="1.1" xmlns="http://www.w3.org/2000/svg" p-id="6749" width="200" height="200"><path d="M952 512.9c-13.8-15.9-28.5-31.3-43.7-45.9 20.3-14.1 36.2-26.2 39.4-28.7 15.6-9.7 20.7-30.1 11.3-45.9-9.5-15.8-30.4-21.3-46.7-12.3l-0.7 0.4-0.7 0.5c-0.3 0.2-25.1 18.8-55.7 39.1-36.6-30.1-76.1-56.8-117.7-79.6l33.9-58.8c4.6-7.8 5.8-16.9 3.5-25.6-2.3-8.8-8-16.1-15.9-20.7l-0.3-0.2c-16.5-8.9-36.9-3.4-46.4 12.6l-36.6 63.6c-40.4-16.3-82.8-26.7-126.2-30.9v-54.9c0-18.7-15.5-33.9-34.5-33.9s-34.5 15.2-34.5 33.9v53.6c-43.8 4.2-86.7 14.3-127.8 30l-35.1-60.8-0.1-0.2c-9.5-15.8-30.4-21.3-46.7-12.3l-0.2 0.1c-7.9 4.6-13.6 11.9-15.9 20.7-2.3 8.7-1.1 17.8 3.5 25.6l31.4 53.7c-34.3 17.1-67.4 37-98.7 59.1-13-8.8-23-16.3-31.2-22.5-8.7-6.5-15-11.2-20.6-14.3-16.4-8.9-36.7-3.4-46.2 12.4-5.1 7.9-6.7 17.6-4.3 26.6 2.3 8.8 8.1 16.4 16.1 20.9 3 2.3 14.5 10.9 30 21.9-19.6 16.3-38.5 33.8-56.1 52l-0.6 0.6-0.5 0.7c-9.1 12.6-20.5 41.8 1.7 62 10.9 9.9 21.4 7.5 26.7 5.1 6.3-2.7 11.6-7.8 17.9-13.7 0.8-0.8 1.6-1.6 2.5-2.4l0.5-0.5 0.5-0.5c21.2-25 45-47.9 70.9-68.1l28.2-21.5c33.7-24.6 70-46 108-63.4l39.8-16.5c45.2-16.5 92.6-25.1 140.8-25.5 181.1 0 340.9 154.7 387.4 214.6 6.1 8.4 15.7 19.5 28.8 20.4 0.5 0 1.1 0.1 1.6 0.1 5.1 0 12.1-1.6 18.7-8.5l0.5-0.5 0.4-0.5c13.8-17.9 13.8-42.8 0-60.7l-0.4-0.4zM97.6 538.5z" p-id="6750" fill="#42c84b"></path><path d="M791 484.5c-40.4-30.9-81.6-55.7-122.5-73.4-51.9-22.6-103.6-34-153.4-34-49.8 0-101.4 11.4-153.3 34-40.9 17.8-82.1 42.5-122.5 73.4-68.4 52.4-110.6 104.3-112.4 106.4L116 604.3l10.8 13.4c1.8 2.2 43.9 54 112.2 106.4 40.4 31 81.6 55.7 122.5 73.4 52 22.6 103.6 34 153.5 34 49.9 0 101.6-11.4 153.5-34 40.9-17.8 82.2-42.5 122.5-73.4 68.4-52.4 110.5-104.3 112.2-106.4l10.8-13.4-10.7-13.3c-1.8-2.2-44-54.1-112.3-106.5z m-199.5 10.9c20.3 20.1 31.9 48 31.9 76.6 0 59.6-48.6 108.1-108.4 108.1-59.8 0-108.4-48.5-108.4-108.1 0-59.6 48.6-108.1 108.4-108.1 28.8 0 56 11.2 76.5 31.5z m170.9 195.3c-58.2 44.5-148.4 97.5-247.5 97.5s-189.3-53-247.5-97.5c-44.3-33.8-77.3-68-93.8-86.3 39.1-43.2 171.7-175.9 327.5-183.5-78 6.9-139.4 72-139.4 151 0 83.6 68.7 151.6 153.2 151.6 84.5 0 153.2-68 153.2-151.6 0-40.4-15.9-78.4-44.7-107-25.4-25.2-59.4-40.8-95.1-44 93.7 4.5 178.4 54.7 233.9 97.1 44.3 33.8 77.4 68.1 93.9 86.3-16.3 18.3-49.4 52.6-93.7 86.4z" p-id="6751" fill="#42c84b"></path></svg>