<svg t="1725350845189" class="icon" viewBox="0 0 1024 1024" version="1.1" xmlns="http://www.w3.org/2000/svg" p-id="40232" width="200" height="200"><path d="M210.2 673.4h603.6V787H210.2z" fill="#FBB03B" p-id="40233"></path><path d="M204.1 851.8c-5.4 0-9.8-4.4-9.8-9.8V446.1c0-5.4 4.4-9.8 9.8-9.8s9.8 4.4 9.8 9.8V842c-0.1 5.4-4.4 9.8-9.8 9.8z" fill="#603813" p-id="40234"></path><path d="M819.9 683.1H204.1c-5.4 0-9.8-4.4-9.8-9.8s4.4-9.8 9.8-9.8H820c5.4 0 9.8 4.4 9.8 9.8-0.1 5.5-4.5 9.8-9.9 9.8zM819.9 796.8H204.1c-5.4 0-9.8-4.4-9.8-9.8s4.4-9.8 9.8-9.8H820c5.4 0 9.8 4.4 9.8 9.8-0.1 5.4-4.5 9.8-9.9 9.8z" fill="#603813" p-id="40235"></path><path d="M819.9 851.8c-5.4 0-9.8-4.4-9.8-9.8V603.7c0-5.4 4.4-9.8 9.8-9.8s9.8 4.4 9.8 9.8V842c0 5.4-4.4 9.8-9.8 9.8z" fill="#603813" p-id="40236"></path><path d="M392.6 673.4s102.3-218.2 380.9-207.2v207.2H392.6z" fill="#54BCE8" p-id="40237"></path><path d="M773.5 683.1H392.6c-3.3 0-6.5-1.7-8.2-4.5-1.8-2.8-2-6.4-0.6-9.4 1-2.2 108.2-224.2 390.1-212.8 5.2 0.2 9.4 4.5 9.4 9.8v207.2c0 5.4-4.4 9.7-9.8 9.7z m-364.3-19.5h354.6v-188c-221.6-4.8-326.9 141.6-354.6 188z" fill="#603813" p-id="40238"></path><path d="M312.8 590.2m-72.1 0a72.1 72.1 0 1 0 144.2 0 72.1 72.1 0 1 0-144.2 0Z" fill="#F9C933" p-id="40239"></path><path d="M312.8 672c-45.1 0-81.9-36.7-81.9-81.9 0-45.1 36.7-81.9 81.9-81.9s81.9 36.7 81.9 81.9S358 672 312.8 672z m0-144.1c-34.4 0-62.3 28-62.3 62.3 0 34.4 28 62.3 62.3 62.3s62.3-28 62.3-62.3c0-34.4-27.9-62.3-62.3-62.3zM491.2 451H358c-4.3 0-8.1-2.8-9.4-7-1.2-4.2 0.4-8.6 4-11l105.6-68.8H358c-5.4 0-9.8-4.4-9.8-9.8s4.4-9.8 9.8-9.8h133.2c4.3 0 8.1 2.8 9.4 7 1.2 4.2-0.4 8.6-4 11L391 431.4h100.3c5.4 0 9.8 4.4 9.8 9.8s-4.5 9.8-9.9 9.8z" fill="#603813" p-id="40240"></path><path d="M602.4 290H512c-4.3 0-8.1-2.8-9.4-7-1.2-4.2 0.4-8.6 4-11l62.8-40.9H512c-5.4 0-9.8-4.4-9.8-9.8s4.4-9.8 9.8-9.8h90.4c4.3 0 8.1 2.8 9.4 7 1.2 4.2-0.4 8.6-4 11L545 270.4h57.5c5.4 0 9.8 4.4 9.8 9.8-0.1 5.4-4.5 9.8-9.9 9.8z" fill="#603813" p-id="40241"></path><path d="M773.5 243.9h-80c-4.3 0-8.1-2.8-9.4-7-1.2-4.2 0.4-8.6 4-11l52.4-34.1h-47.1c-5.4 0-9.8-4.4-9.8-9.8s4.4-9.8 9.8-9.8h80c4.3 0 8.1 2.8 9.4 7 1.2 4.2-0.4 8.6-4 11l-52.4 34.1h47.1c5.4 0 9.8 4.4 9.8 9.8s-4.4 9.8-9.8 9.8z" fill="#603813" p-id="40242"></path></svg>