<svg t="1734270784627" class="icon" viewBox="0 0 1024 1024" version="1.1" xmlns="http://www.w3.org/2000/svg" p-id="11845" width="200" height="200"><path d="M752.7 452c-61.2-16.3-142.6-25.3-229-25.3s-167.7 9-229 25.3c-82 21.9-99.2 48.6-99.2 67.2s17.2 45.4 99.2 67.2c61.2 16.3 142.6 25.3 229 25.3s167.7-9 229-25.3c82-21.9 99.2-48.6 99.2-67.2 0.1-18.6-17.1-45.3-99.2-67.2zM524.9 596.2c-58.9 0-114.1-6.4-155.6-17.9-29.1-8.1-60.2-22.2-60.2-37.2 0-15.1 31.1-29.1 60.2-37.2C410.8 492.3 466 486 524.9 486s114.1 6.4 155.6 17.9c29.1 8.1 60.2 22.2 60.2 37.2 0 15.1-31.1 29.1-60.2 37.2-41.5 11.5-96.8 17.9-155.6 17.9z m224.3-23.1c-10.9 2.9-22.4 5.6-34.5 8 24.6-10.6 39.7-24 39.7-40.1 0-44.8-118.3-69-229.5-69s-229.5 24.2-229.5 69c0 16.5 16 30.1 41.6 40.9-13.6-2.6-26.5-5.6-38.6-8.8-55.7-14.8-89-35-89-53.8 0-18.9 33.2-39 89-53.9 60.1-16 140.2-24.8 225.4-24.8s165.3 8.8 225.4 24.8c55.7 14.9 89 35 89 53.9-0.1 18.8-33.3 39-89 53.8z" fill="#1296db" p-id="11846"></path><path d="M921.1 452.7c-22.8-16.2-55.2-30.7-96.3-43.1-83.8-25.2-195-39.1-313.2-39.1s-229.5 13.9-313.2 39.1c-41.1 12.4-73.6 26.9-96.3 43.1-24.9 17.7-37.5 37-37.5 57.2 0 20.3 12.6 39.5 37.5 57.2 22.8 16.2 55.2 30.7 96.3 43.1 24.8 7.5 52.1 14 81.2 19.4 0.5 3.2 1.6 5.8 2.8 7.9 10.1 17 46.4 28.4 110.8 35 33.7 3.4 74.1 5.2 114.3 5.2 17.6 0 35.1-0.3 52-1 118.3-4.9 186.6-18.8 202.8-41.2 2.4-3.3 3.7-6.8 4.1-10.4 20.6-4.4 40.1-9.3 58.3-14.8 41.1-12.4 73.6-26.9 96.3-43.1 24.9-17.7 37.5-37 37.5-57.2 0.1-20.3-12.5-39.6-37.4-57.3zM660.5 655c-42.3 5.5-85.4 7.3-101.6 8-55.1 2.3-116.6 0.7-164.4-4.1-71.8-7.3-92.7-19.6-98.8-26.2 65.2 11 139 16.9 215.8 16.9 85.9 0 168.1-7.3 238.7-21-5.7 6.5-25.2 18-89.7 26.4z m160.3-57.9c-17.9 5.4-37 10.2-57.2 14.5-2.7 0.6-5.4 1.2-8.2 1.7-71.5 14.5-155.6 22.3-243.8 22.3-116.9 0-226.8-13.7-309.3-38.5-78.8-23.7-124-55.5-124-87.1 0-31.6 45.2-63.4 124-87.1 82.5-24.9 192.3-38.5 309.3-38.5s226.8 13.7 309.3 38.5c78.8 23.7 124 55.5 124 87.1-0.1 31.6-45.3 63.4-124.1 87.1z" fill="#1296db" p-id="11847"></path></svg>